<?xml version="1.0" standalone="no"?>
<!DOCTYPE svg PUBLIC "-//W3C//DTD SVG 20010904//EN"
 "http://www.w3.org/TR/2001/REC-SVG-20010904/DTD/svg10.dtd">
<svg version="1.0" xmlns="http://www.w3.org/2000/svg"
 width="700.000000pt" height="700.000000pt" viewBox="0 0 700.000000 700.000000"
 preserveAspectRatio="xMidYMid meet">
<metadata>
Created by potrace 1.11, written by Peter Selinger 2001-2013
</metadata>
<g transform="translate(0.000000,700.000000) scale(0.100000,-0.100000)"
fill="#000000" stroke="none">
<path d="M6747 6774 c-7 -7 -44 -11 -177 -19 -47 -2 -101 -7 -120 -9 -19 -3
-57 -7 -85 -11 -27 -4 -61 -8 -75 -10 -14 -3 -43 -7 -65 -11 -22 -3 -70 -12
-107 -20 -37 -7 -82 -16 -100 -19 -18 -3 -78 -18 -133 -32 -55 -14 -106 -26
-112 -26 -7 0 -13 -3 -13 -7 0 -3 -10 -6 -21 -7 -30 -3 -131 -34 -146 -46 -7
-5 -13 -7 -13 -3 0 3 -24 -3 -52 -15 -29 -11 -60 -22 -68 -24 -27 -6 -244 -92
-313 -124 -38 -17 -74 -33 -80 -34 -7 -1 -14 -4 -17 -7 -9 -9 -70 -41 -70 -37
0 2 -28 -11 -62 -29 -35 -18 -90 -47 -123 -64 -33 -18 -116 -66 -185 -107
-169 -101 -162 -96 -182 -114 -10 -9 -31 -22 -46 -30 -14 -8 -34 -19 -42 -26
-8 -6 -80 -60 -160 -119 -80 -59 -147 -110 -150 -113 -3 -3 -32 -28 -65 -55
-33 -28 -67 -57 -76 -65 -9 -9 -51 -47 -95 -86 -119 -107 -416 -410 -504 -515
-11 -14 -35 -41 -53 -61 -110 -122 -290 -344 -420 -519 -72 -96 -132 -177
-134 -179 -1 -2 -47 19 -100 46 -133 68 -282 114 -418 128 -52 5 -250 5 -295
0 -69 -8 -115 -16 -185 -31 -74 -17 -247 -68 -280 -84 -11 -5 -44 -19 -73 -30
-79 -30 -234 -107 -342 -169 -91 -52 -290 -178 -300 -190 -3 -3 -27 -22 -55
-41 -27 -19 -55 -39 -61 -45 -6 -5 -23 -19 -39 -30 -113 -82 -327 -273 -290
-260 47 16 172 48 200 51 17 2 41 6 55 9 73 15 129 19 265 19 132 0 247 -9
266 -20 4 -2 24 -6 45 -9 62 -10 242 -74 320 -115 64 -33 181 -105 194 -120 3
-3 27 -23 55 -45 84 -67 285 -286 285 -310 0 -3 8 -15 18 -25 18 -19 72 -111
58 -99 -9 8 -219 -205 -232 -236 -9 -23 -10 -46 -5 -106 0 -9 19 -37 42 -62
l40 -46 -75 -76 c-73 -73 -81 -88 -77 -141 2 -18 -4 -21 -47 -23 -71 -2 -464
-146 -557 -204 -103 -63 -193 -160 -245 -260 -22 -43 -40 -84 -40 -90 0 -17
146 -64 218 -72 18 -1 35 -5 38 -7 2 -3 -16 -45 -41 -94 -62 -122 -96 -259
-98 -396 -1 -58 1 -109 5 -113 9 -10 119 -10 198 -1 82 9 142 22 188 42 21 8
38 15 40 14 7 -3 158 74 164 84 10 15 15 6 22 -39 10 -62 36 -156 52 -187 l14
-28 50 19 c78 30 138 69 200 130 74 73 118 143 165 266 21 55 44 114 51 130
19 42 89 247 90 263 1 6 2 28 2 47 2 32 5 35 29 34 56 -3 66 2 139 72 l73 72
40 -36 c49 -44 98 -59 147 -46 35 10 87 57 202 184 l52 58 33 -15 c84 -40 281
-206 393 -330 40 -45 114 -146 114 -157 0 -6 3 -11 8 -11 7 0 9 -3 63 -110 71
-141 115 -288 136 -460 13 -105 6 -338 -13 -425 -2 -11 -6 -31 -8 -45 -7 -47
-39 -164 -52 -197 -8 -18 -11 -33 -6 -33 14 0 113 108 241 265 9 11 34 45 56
75 21 30 42 57 46 60 3 3 40 57 83 120 42 63 81 122 87 131 7 10 11 20 10 24
-2 4 1 11 6 14 14 10 172 296 173 316 1 2 12 29 25 60 31 68 93 247 97 277 2
13 7 28 10 34 4 6 9 21 12 35 2 13 12 65 22 114 13 65 18 137 18 260 1 161 -3
194 -39 350 -1 6 -5 17 -8 25 -4 8 -16 42 -28 75 -12 33 -41 96 -65 140 l-42
80 51 35 c27 19 57 40 66 45 9 6 18 12 21 15 3 3 23 19 45 35 46 34 72 55 90
73 8 6 18 12 24 12 6 0 11 4 11 8 0 4 12 15 28 24 15 9 38 27 52 40 14 13 61
52 105 88 44 35 85 69 91 75 6 5 37 33 69 60 153 130 259 230 445 415 184 184
248 255 368 404 40 50 81 102 92 114 24 28 201 278 215 304 6 10 38 62 73 116
34 54 62 104 62 110 0 7 4 12 9 12 5 0 13 10 17 23 4 12 9 24 13 27 3 3 17 25
30 50 40 77 125 245 126 250 1 3 13 29 28 59 15 30 27 61 27 68 0 7 5 13 12
13 6 0 9 3 6 6 -3 3 9 41 28 84 32 73 92 232 97 255 2 6 5 15 9 20 4 8 29 86
44 140 2 6 17 60 34 120 18 61 33 117 35 125 13 55 56 261 61 290 3 19 7 46
10 60 2 14 7 45 10 70 3 25 7 58 10 75 6 35 10 83 19 218 3 55 10 110 16 124
5 13 9 26 9 29 0 6 -26 5 -33 -2z"/>
</g>
</svg>
